<svg xmlns="http://www.w3.org/2000/svg" width="256" height="256" viewBox="0 0 256 256" shape-rendering="crispEdges">
  <defs>
    <g id="sprout">
      <path fill="#17233b" d="M9 25h4V9h5v5h5v5h5v-3h8v3h5v-5h5V9h5v16h4v17h-4v5h-7v5h-3v7H31v-6h-5v6H16v-7h-3v-5H6v-5H3V25z"/>
      <path fill="#4f8a55" d="M13 25V14h3v5h6v5h20v-5h6v-5h3v11h-4v4H17v-4zm1 14h36v8h-7v5h-3v4h-7v-6h-6v6h-7v-4h-3v-5h-7v-8z"/>
      <path fill="#f3e4b4" d="M12 28h40v13h-5v5h-6v4h-5v3h-8v-3h-5v-4h-6v-5h-5z"/>
      <path fill="#d96d3b" d="M15 36h6v4h-6zm28 0h6v4h-6z"/>
      <path fill="#17233b" d="M20 31h4v5h-4zm20 0h4v5h-4zm-12 9h3v2h2v-2h3v4h-8zM51 43h5v3h5v8h-5v3h-7v-5h3v-5h-1z"/>
      <path fill="#fff8d8" d="M21 31h2v2h-2zm20 0h2v2h-2z"/>
      <path fill="#d96d3b" d="M56 46h5v8h-5z"/>
    </g>
  </defs>
  <g transform="translate(0 0)"><use href="#sprout"/></g>
  <g transform="translate(64 1)"><use href="#sprout"/></g>
  <g transform="translate(128 0)"><use href="#sprout"/></g>
  <g transform="translate(192 1)"><use href="#sprout"/></g>
  <g transform="translate(0 64)"><use href="#sprout"/><rect x="52" y="15" width="4" height="4" fill="#d96d3b"/></g>
  <g transform="translate(64 64)"><use href="#sprout"/><rect x="54" y="11" width="4" height="4" fill="#d96d3b"/><rect x="50" y="18" width="3" height="3" fill="#d96d3b"/></g>
  <g transform="translate(128 65)"><use href="#sprout"/><rect x="52" y="15" width="4" height="4" fill="#d96d3b"/></g>
  <g transform="translate(192 64)"><use href="#sprout"/><rect x="54" y="11" width="4" height="4" fill="#d96d3b"/></g>
  <g transform="translate(0 128)"><use href="#sprout"/><rect x="5" y="36" width="5" height="4" fill="#f3e4b4"/></g>
  <g transform="translate(64 128)"><use href="#sprout"/><rect x="54" y="35" width="6" height="4" fill="#f3e4b4"/></g>
  <g transform="translate(128 128)"><use href="#sprout"/><rect x="4" y="34" width="6" height="4" fill="#f3e4b4"/></g>
  <g transform="translate(192 128)"><use href="#sprout"/><rect x="54" y="37" width="5" height="4" fill="#f3e4b4"/></g>
  <g transform="translate(0 192)"><use href="#sprout"/><rect x="5" y="10" width="4" height="4" fill="#d96d3b"/></g>
  <g transform="translate(64 188)"><use href="#sprout"/><rect x="51" y="8" width="5" height="5" fill="#d96d3b"/><rect x="7" y="14" width="3" height="3" fill="#d96d3b"/></g>
  <g transform="translate(128 192)"><use href="#sprout"/><rect x="4" y="9" width="5" height="5" fill="#d96d3b"/></g>
  <g transform="translate(192 187)"><use href="#sprout"/><rect x="52" y="10" width="4" height="4" fill="#d96d3b"/><rect x="8" y="8" width="4" height="4" fill="#d96d3b"/></g>
</svg>
